<?xml version="1.0" encoding="utf-8"?>
<!-- Generator: Adobe Illustrator 26.0.1, SVG Export Plug-In . SVG Version: 6.00 Build 0)  -->
<svg version="1.1" id="Layer_1" xmlns="http://www.w3.org/2000/svg" xmlns:xlink="http://www.w3.org/1999/xlink" x="0px" y="0px"
	 viewBox="0 0 800 250" style="enable-background:new 0 0 800 250;" xml:space="preserve">
<g>
	<g>
		<path d="M204.5,124.8c0,2-0.3,3.9-1,5.7c-2.4,6.9-8.9,11.5-16.2,11.5h-41.9c-1.1,0-2.1,0.4-2.8,1.2c-0.7,0.8-1.1,1.8-0.9,2.9
			c0.2,1.9,1.9,3.4,3.9,3.4h20.9c7.3,0,13.8,4.6,16.2,11.5c0.7,1.8,1,3.7,1,5.7c0,2-0.3,3.9-1,5.7c-2.4,6.9-8.9,11.5-16.2,11.5
			h-21.1c-1.1,0-2.1,0.5-2.8,1.2c-0.7,0.8-1.1,1.8-0.9,2.9c0.2,1.9,1.9,3.4,3.9,3.4H156c1.8,0,3.4,0.7,4.7,2c1.2,1.2,2,3,2,4.7
			c0,3.8-3.1,6.8-6.8,6.8h-10.4c-2,0-3.9-0.3-5.7-1c-4.9-1.7-8.8-5.6-10.5-10.5c-0.7-1.8-1-3.8-1-5.7c0-1.9,0.3-3.9,1-5.7
			c1.8-4.9,5.6-8.8,10.5-10.5c1.8-0.6,3.8-1,5.7-1h21.3c2.1,0,3.7-1.7,3.7-3.7c0-2.1-1.7-3.7-3.7-3.7h-21.3c-2,0-3.9-0.3-5.7-1
			c-4.9-1.8-8.7-5.6-10.5-10.5c-0.7-1.8-1-3.8-1-5.7c0-2,0.3-3.9,1-5.7c1.7-4.9,5.6-8.8,10.5-10.5c1.8-0.6,3.8-1,5.7-1l42.1,0
			c2.1-0.1,3.7-1.7,3.7-3.7c0-2-1.7-3.7-3.7-3.7h-42.1c-1.9,0-3.9-0.3-5.7-1c-4.9-1.7-8.7-5.5-10.5-10.5c-0.6-1.9-1-3.8-1-5.7
			c0-2,0.3-3.9,1-5.7c1.7-4.9,5.5-8.7,10.5-10.5c1.8-0.6,3.8-1,5.7-1h21.3c2.1,0,3.7-1.7,3.7-3.7c0-2.1-1.7-3.7-3.7-3.7h-21.3
			c-2,0-3.9-0.3-5.7-1c-4.9-1.8-8.7-5.6-10.5-10.5c-0.7-1.8-1-3.8-1-5.7c0-2,0.3-3.9,1-5.7c1.7-4.9,5.6-8.8,10.5-10.5
			c1.8-0.6,3.8-1,5.7-1h10.5c1.8,0,3.5,0.7,4.7,2c1.3,1.3,2,3,2,4.7c0,3.7-3,6.8-6.8,6.8h-10.4c-1.1,0-2.1,0.4-2.8,1.2
			c-0.7,0.8-1.1,1.8-0.9,2.9c0.2,1.9,1.9,3.4,3.9,3.4h20.9c7.3,0,13.8,4.6,16.2,11.5c0.7,1.8,1,3.7,1,5.7c0,2-0.3,3.9-1,5.7
			c-2.4,6.9-8.9,11.5-16.2,11.5h-21.1c-1.1,0-2.1,0.5-2.8,1.2c-0.7,0.8-1.1,1.8-0.9,2.9c0.2,1.9,1.9,3.4,3.9,3.4h41.6
			c7.3,0,13.8,4.6,16.2,11.5C204.1,120.9,204.5,122.8,204.5,124.8z"/>
		<path d="M38.5,124.8c0,2,0.3,3.9,1,5.7c2.4,6.9,8.9,11.5,16.2,11.5h41.9c1.1,0,2.1,0.4,2.8,1.2c0.7,0.8,1.1,1.8,0.9,2.9
			c-0.2,1.9-1.9,3.4-3.9,3.4H76.4c-7.3,0-13.8,4.6-16.2,11.5c-0.7,1.8-1,3.7-1,5.7c0,2,0.3,3.9,1,5.7c2.4,6.9,8.9,11.5,16.2,11.5
			h21.1c1.1,0,2.1,0.5,2.8,1.2c0.7,0.8,1.1,1.8,0.9,2.9c-0.2,1.9-1.9,3.4-3.9,3.4H87c-1.8,0-3.4,0.7-4.7,2c-1.2,1.2-2,3-2,4.7
			c0,3.8,3.1,6.8,6.8,6.8h10.4c2,0,3.9-0.3,5.7-1c4.9-1.7,8.8-5.6,10.5-10.5c0.7-1.8,1-3.8,1-5.7c0-1.9-0.3-3.9-1-5.7
			c-1.8-4.9-5.6-8.8-10.5-10.5c-1.8-0.6-3.8-1-5.7-1H76.2c-2.1,0-3.7-1.7-3.7-3.7c0-2.1,1.7-3.7,3.7-3.7h21.3c2,0,3.9-0.3,5.7-1
			c4.9-1.8,8.7-5.6,10.5-10.5c0.7-1.8,1-3.8,1-5.7c0-2-0.3-3.9-1-5.7c-1.7-4.9-5.6-8.8-10.5-10.5c-1.8-0.6-3.8-1-5.7-1l-42.1,0
			c-2.1-0.1-3.7-1.7-3.7-3.7c0-2,1.7-3.7,3.7-3.7h42.1c1.9,0,3.9-0.3,5.7-1c4.9-1.7,8.7-5.5,10.5-10.5c0.6-1.9,1-3.8,1-5.7
			c0-2-0.3-3.9-1-5.7c-1.7-4.9-5.5-8.7-10.5-10.5c-1.8-0.6-3.8-1-5.7-1H76.2c-2.1,0-3.7-1.7-3.7-3.7c0-2.1,1.7-3.7,3.7-3.7h21.3
			c2,0,3.9-0.3,5.7-1c4.9-1.8,8.7-5.6,10.5-10.5c0.7-1.8,1-3.8,1-5.7c0-2-0.3-3.9-1-5.7c-1.7-4.9-5.6-8.8-10.5-10.5
			c-1.8-0.6-3.8-1-5.7-1H87.1c-1.8,0-3.5,0.7-4.7,2c-1.3,1.3-2,3-2,4.7c0,3.7,3,6.8,6.8,6.8h10.4c1.1,0,2.1,0.4,2.8,1.2
			c0.7,0.8,1.1,1.8,0.9,2.9c-0.2,1.9-1.9,3.4-3.9,3.4H76.4c-7.3,0-13.8,4.6-16.2,11.5c-0.7,1.8-1,3.7-1,5.7c0,2,0.3,3.9,1,5.7
			c2.4,6.9,8.9,11.5,16.2,11.5h21.1c1.1,0,2.1,0.5,2.8,1.2c0.7,0.8,1.1,1.8,0.9,2.9c-0.2,1.9-1.9,3.4-3.9,3.4H55.7
			c-7.3,0-13.8,4.6-16.2,11.5C38.8,120.9,38.5,122.8,38.5,124.8z"/>
	</g>
	<g>
		<path d="M245.9,171.8v-94h35.2c7.8,0,14,1.2,18.7,3.5c4.7,2.3,8,5.3,10.1,9c2.1,3.7,3.1,7.7,3.1,12c0,3.9-0.9,7.3-2.6,10.1
			c-1.7,2.8-3.7,5-5.9,6.6c-2.2,1.6-4.1,2.5-5.6,2.9c0.8,0.2,1.6,0.5,2.6,0.8c1,0.4,2,0.8,3,1.3c3.9,1.7,7,4.3,9.6,7.9
			c2.5,3.6,3.8,7.9,3.8,13c0,9.7-3.3,16.6-9.9,20.7c-6.6,4.1-15.6,6.2-26.8,6.2H245.9z M266.6,115.4h12.5c3.2,0,6.1-0.8,8.8-2.3
			c2.7-1.5,4-4.3,4-8.2c0-2.8-0.6-5-1.9-6.5c-1.3-1.5-2.9-2.6-4.9-3.2c-2-0.6-4-0.9-6.1-0.9h-12.5V115.4z M266.6,155.5h13.8
			c2.1,0,4.3-0.3,6.8-0.8c2.5-0.5,4.6-1.6,6.4-3.4c1.8-1.7,2.7-4.4,2.7-8.1c0-3.4-0.9-6-2.6-7.8c-1.7-1.8-3.9-3-6.3-3.6
			c-2.5-0.6-4.8-0.9-7-0.9h-13.8V155.5z"/>
		<path d="M327.9,171.8v-66.1h19.4l0.7,8.3c1.7-2.3,4-4.4,7-6.5c3-2.1,6.8-3.1,11.5-3.1c1.8,0,3.3,0.1,4.6,0.3
			c1.3,0.2,2.5,0.5,3.7,1l-3.2,17.9c-2.1-0.7-4.5-1-7.3-1c-4.8,0-8.7,1.4-11.6,4.3c-3,2.9-4.4,6.9-4.4,12.2v32.7H327.9z"/>
		<path d="M418,171.8l-0.6-6.2c-4.7,5.4-11.4,8.2-20,8.2c-3.1,0-6.4-0.6-9.8-1.8c-3.4-1.2-6.4-3.3-8.8-6.3c-2.4-3-3.7-7.1-3.7-12.4
			c0-5.2,1.3-9.5,4-13.1c2.7-3.6,6.3-6.3,10.9-8.1c4.6-1.8,9.8-2.7,15.5-2.7c2.3,0,4.7,0,7.1,0.1c2.4,0.1,4,0.2,4.7,0.4v-1.4
			c0-3.4-1.3-5.8-3.9-7.3c-2.6-1.5-5.5-2.2-8.8-2.2c-4.4,0-8.1,0.6-11.1,1.7c-3,1.1-5.5,2.4-7.6,3.8l-8.3-12.4
			c2.7-2.2,6.4-4.2,11.1-6c4.7-1.8,10.9-2.7,18.7-2.7c10.1,0,17.5,2.7,22.3,8.1c4.8,5.4,7.2,12.7,7.2,21.8v38.5H418z M417.4,148
			v-5.4c-0.5-0.1-1.4-0.2-2.7-0.4c-1.3-0.1-2.8-0.2-4.5-0.2c-5.6,0-9.6,0.8-12,2.4c-2.3,1.6-3.5,3.9-3.5,6.8c0,5.4,3.3,8.2,9.9,8.2
			c3.2,0,6.1-1,8.8-3S417.4,151.7,417.4,148z"/>
		<path d="M441.5,196.2l8.2-14c1.1,0.8,2.4,1.6,3.8,2.3c1.4,0.7,2.9,1,4.4,1c2.2,0,4-0.7,5.5-2c1.5-1.4,2.9-3.7,4.1-7l2-5.4
			l-30.2-65.4h23.1l16.5,41.7l14.9-41.7h21.6l-27.1,65.7c-1.5,3.7-3,7.3-4.5,10.9c-1.5,3.6-3.3,6.8-5.3,9.8c-2,3-4.6,5.3-7.7,7
			c-3.1,1.7-7,2.6-11.6,2.6c-3.6,0-6.8-0.5-9.7-1.4C446.6,199.3,444,198,441.5,196.2z"/>
		<path d="M520.9,171.8v-66.1h19.4l0.6,7.2c2.2-2.6,5-4.7,8.6-6.3c3.6-1.6,7.2-2.4,11-2.4c7.5,0,13.5,2.3,18,6.8
			c4.5,4.5,6.8,11.2,6.8,20v40.9H565v-38.1c0-3.7-0.9-6.6-2.7-8.7c-1.8-2.2-4.4-3.2-7.7-3.2c-4.4,0-7.8,1.5-10.1,4.4
			c-2.3,2.9-3.5,6.3-3.5,10.1v35.5H520.9z"/>
		<path d="M597,96V77.8h21.7V96H597z M597.7,171.8v-66.1H618v66.1H597.7z"/>
		<path d="M669.5,171.8l-0.6-6.2c-4.7,5.4-11.4,8.2-20,8.2c-3.1,0-6.4-0.6-9.8-1.8c-3.4-1.2-6.4-3.3-8.8-6.3
			c-2.4-3-3.7-7.1-3.7-12.4c0-5.2,1.3-9.5,4-13.1c2.7-3.6,6.3-6.3,10.9-8.1c4.6-1.8,9.8-2.7,15.5-2.7c2.3,0,4.7,0,7.1,0.1
			c2.4,0.1,4,0.2,4.7,0.4v-1.4c0-3.4-1.3-5.8-3.9-7.3c-2.6-1.5-5.5-2.2-8.8-2.2c-4.4,0-8.1,0.6-11.1,1.7c-3,1.1-5.5,2.4-7.6,3.8
			l-8.3-12.4c2.7-2.2,6.4-4.2,11.1-6c4.7-1.8,10.9-2.7,18.7-2.7c10.1,0,17.5,2.7,22.3,8.1c4.8,5.4,7.2,12.7,7.2,21.8v38.5H669.5z
			 M669,148v-5.4c-0.5-0.1-1.4-0.2-2.7-0.4c-1.3-0.1-2.8-0.2-4.5-0.2c-5.6,0-9.6,0.8-12,2.4c-2.3,1.6-3.5,3.9-3.5,6.8
			c0,5.4,3.3,8.2,9.9,8.2c3.2,0,6.1-1,8.8-3C667.6,154.5,669,151.7,669,148z"/>
		<path d="M747.9,149.8l11.8,13.2c-2.7,3-6.3,5.6-10.8,7.8c-4.5,2.2-9.7,3.2-15.9,3.2c-7,0-13.2-1.5-18.6-4.6
			c-5.4-3.1-9.5-7.2-12.5-12.5c-3-5.3-4.5-11.4-4.5-18.2c0-6.6,1.6-12.5,4.7-17.8c3.1-5.3,7.3-9.5,12.7-12.7
			c5.4-3.1,11.5-4.7,18.3-4.7c6,0,11.2,1,15.7,3c4.5,2,8.1,4.6,11.1,7.9l-12.3,13.2c-1.5-1.7-3.3-3.2-5.5-4.5c-2.2-1.3-5-2-8.6-2
			c-3.2,0-6,0.8-8.3,2.5c-2.3,1.6-4.2,3.8-5.4,6.5c-1.3,2.7-1.9,5.6-1.9,8.7c0,2.9,0.6,5.7,1.9,8.4c1.3,2.7,3.1,4.9,5.4,6.6
			c2.3,1.7,5.1,2.6,8.3,2.6c3.5,0,6.4-0.7,8.7-2.1C744.6,152.8,746.5,151.3,747.9,149.8z"/>
	</g>
</g>
</svg>
